<svg xmlns="http://www.w3.org/2000/svg" xmlns:svg="http://www.w3.org/2000/svg" id="svg3731" width="128" height="128" class="icon" p-id="23254" t="1557219714859" version="1.1" viewBox="0 0 128 129"><metadata id="metadata3735"/><defs id="defs3727"><style id="style3725" type="text/css"/></defs><path id="path3729" d="M 114.06089,1.7493735 H 12.946133 c -4.8612889,0 -9.7225741,4.4874685 -9.7225741,8.9749365 V 30.469172 H 21.696446 V 43.034083 H 3.2235589 V 59.188966 H 21.696446 V 71.753881 H 3.2235589 V 87.908767 H 21.696446 V 100.47369 H 3.2235589 v 17.94986 c 0,4.48747 4.8612852,8.97494 9.7225741,8.97494 H 114.06089 c 4.86129,0 9.72257,-4.48747 9.72257,-8.97494 V 10.72431 c 0,-4.487468 -4.86128,-8.9749365 -9.72257,-8.9749365 z M 74.198341,34.95664 c 7.778057,0 14.583858,6.282454 14.583858,13.462404 0,7.179946 -6.805801,13.462405 -14.583858,13.462405 -7.778058,0 -14.583861,-6.282459 -14.583861,-13.462405 0,-7.17995 5.833547,-13.462404 14.583861,-13.462404 z M 40.169334,97.781199 c 0,-17.949875 14.583861,-31.412283 34.029007,-31.412283 19.445146,0 34.028999,14.359903 34.028999,31.412283 z" p-id="23255" style="stroke-width:.14595747"/></svg>